<?xml version="1.0" standalone="no"?>
<!DOCTYPE svg PUBLIC "-//W3C//DTD SVG 20010904//EN"
 "http://www.w3.org/TR/2001/REC-SVG-20010904/DTD/svg10.dtd">
<svg version="1.0" xmlns="http://www.w3.org/2000/svg"
 width="16.000000pt" height="16.000000pt" viewBox="0 0 16.000000 16.000000"
 preserveAspectRatio="xMidYMid meet">

<g transform="translate(0.000000,16.000000) scale(0.100000,-0.100000)"
fill="#000000" stroke="none">
<path d="M25 135 c-50 -49 -15 -135 54 -135 16 0 33 5 37 11 4 6 -1 10 -12 8
-59 -9 -94 28 -80 86 6 25 43 42 80 36 11 -2 16 2 12 8 -13 20 -66 12 -91 -14z"/>
<path d="M126 122 c-4 -12 -10 -20 -14 -18 -4 2 -7 -9 -7 -24 0 -15 3 -26 7
-24 4 2 10 -6 14 -18 6 -21 7 -21 20 -3 18 24 18 66 0 90 -13 18 -14 18 -20
-3z m24 -42 c0 -16 -3 -31 -7 -33 -5 -3 -8 12 -8 33 0 21 3 36 8 33 4 -2 7
-17 7 -33z m-23 -12 c-3 -7 -5 -2 -5 12 0 14 2 19 5 13 2 -7 2 -19 0 -25z"/>
<path d="M58 109 c-24 -13 -23 -46 1 -59 29 -15 31 -13 31 30 0 42 -4 46 -32
29z m22 -29 c0 -11 -7 -20 -15 -20 -8 0 -15 9 -15 20 0 11 7 20 15 20 8 0 15
-9 15 -20z"/>
</g>
</svg>
